<?xml version="1.0" encoding="UTF-8" standalone="no"?>
<svg
   xmlns:dc="http://purl.org/dc/elements/1.1/"
   xmlns:cc="http://creativecommons.org/ns#"
   xmlns:rdf="http://www.w3.org/1999/02/22-rdf-syntax-ns#"
   xmlns:svg="http://www.w3.org/2000/svg"
   xmlns="http://www.w3.org/2000/svg"
   xmlns:sodipodi="http://sodipodi.sourceforge.net/DTD/sodipodi-0.dtd"
   xmlns:inkscape="http://www.inkscape.org/namespaces/inkscape"
   viewBox="39 -18.3 82.100001 35.099997"
   enable-background="new 39 -18.3 121.7 81.3"
   version="1.1"
   id="svg4"
   sodipodi:docname="less.svg"
   width="82.099998"
   height="35.099998"
   inkscape:version="0.92.3 (2405546, 2018-03-11)">
  <metadata
     id="metadata10">
    <rdf:RDF>
      <cc:Work
         rdf:about="">
        <dc:format>image/svg+xml</dc:format>
        <dc:type
           rdf:resource="http://purl.org/dc/dcmitype/StillImage" />
      </cc:Work>
    </rdf:RDF>
  </metadata>
  <defs
     id="defs8" />
  <sodipodi:namedview
     pagecolor="#ffffff"
     bordercolor="#666666"
     borderopacity="1"
     objecttolerance="10"
     gridtolerance="10"
     guidetolerance="10"
     inkscape:pageopacity="0"
     inkscape:pageshadow="2"
     inkscape:window-width="1920"
     inkscape:window-height="1013"
     id="namedview6"
     showgrid="false"
     inkscape:zoom="3.939346"
     inkscape:cx="46.675406"
     inkscape:cy="17.420442"
     inkscape:window-x="-9"
     inkscape:window-y="-9"
     inkscape:window-maximized="1"
     inkscape:current-layer="svg4" />
  <path fill="rgb(51, 51, 51)"
     d="M 42.5,4 C 42.5,2.6 41.6,1.1 39,1 v -3.5 c 2.6,-0.1 3.5,-1.6 3.5,-3 0,-2.5 -0.4,-4.1 -0.4,-7 0,-4.4 1.6,-5.8 5.2,-5.8 h 9.6 v 3.2 h -7.8 c -1.7,0 -2.2,0.6 -2.2,2.8 0,2.2 0.2,4.2 0.2,6.6 0,3.1 -1,4.3 -3,4.8 v 0.2 c 2,0.5 3,1.7 3,4.8 0,2.5 -0.2,4.4 -0.2,6.6 0,2.2 0.5,2.9 2.2,2.9 h 0.8 v 3.1 h -2.6 c -3.6,0 -5.2,-1.4 -5.2,-5.8 C 42.1,8 42.5,6.5 42.5,4 Z M 51,-18 h 6 V 4.5 c 0,1.3 0.6,1.7 1.1,1.7 0.2,0 0.4,0 0.7,-0.1 l 0.7,4.4 C 58.8,10.8 57.8,11 56.5,11 52.4,11 51,8.3 51,4.2 Z m 16.9,7.8 c 5.7,0 8.6,4.2 8.6,9.7 0,1.1 -0.1,2 -0.2,2.5 H 64 c 0.5,3.1 2.6,4.4 5.3,4.4 1.5,0 2.9,-0.4 4.4,-1.3 l 2,3.6 C 73.6,10.1 70.9,11 68.5,11 62.7,11 58.3,7.1 58.3,0.4 58.2,-6.1 63,-10.2 67.9,-10.2 Z m 3.5,8.5 c 0,-2.3 -1,-4 -3.4,-4 -1.9,0 -3.5,1.3 -3.9,4 z m 8.5,6.2 c 1.8,1.4 3.5,2.1 5.2,2.1 1.8,0 2.6,-0.7 2.6,-1.7 0,-1.3 -2,-2 -4.1,-2.8 -2.4,-0.9 -5.3,-2.6 -5.3,-5.9 0,-3.7 3.1,-6.3 7.7,-6.3 3.1,0 5.4,1.3 7.1,2.6 l -2.7,3.6 c -1.5,-1.1 -2.8,-1.7 -4.3,-1.7 -1.5,0 -2.3,0.6 -2.3,1.6 0,1.3 1.9,1.8 4,2.6 2.6,0.9 5.5,2.4 5.5,6.1 0,3.7 -2.9,6.5 -8.3,6.5 -2.6,0 -5.7,-1.1 -7.7,-2.8 z m 16.3,0 c 1.8,1.4 3.5,2.1 5.2,2.1 1.8,0 2.6,-0.7 2.6,-1.7 0,-1.3 -2,-2 -4.1,-2.8 -2.4,-0.9 -5.3,-2.6 -5.3,-5.9 0,-3.7 3.1,-6.3 7.7,-6.3 3.1,0 5.4,1.3 7.1,2.6 l -2.7,3.6 c -1.5,-1.1 -2.8,-1.7 -4.3,-1.7 -1.5,0 -2.3,0.6 -2.3,1.6 0,1.3 1.9,1.8 3.9,2.6 2.6,0.9 5.5,2.4 5.5,6.1 0,3.7 -2.9,6.5 -8.3,6.5 -2.6,0 -5.7,-1.1 -7.7,-2.8 z m 14.8,9 c 1.7,0 2.2,-0.6 2.2,-2.9 0,-2.2 -0.2,-4.2 -0.2,-6.6 0,-3.1 1,-4.3 3,-4.8 V -1 c -2,-0.5 -3,-1.7 -3,-4.8 0,-2.4 0.2,-4.5 0.2,-6.6 0,-2.2 -0.4,-2.8 -2.2,-2.8 h -0.8 v -3.1 h 2.6 c 3.6,0 5.2,1.4 5.2,5.8 0,2.8 -0.4,4.4 -0.4,7 0,1.4 0.9,2.9 3.5,3 V 1 c -2.6,0.1 -3.5,1.6 -3.5,3 0,2.6 0.4,4.1 0.4,7 0,4.4 -1.6,5.8 -5.2,5.8 h -2.6 v -3.2 z"
     id="path2"
     inkscape:connector-curvature="0" />
</svg>
